#!OML:ASF X:\für Bonn\!DataBase\2005_08_12_Daniel\c3d\Daniel.ASF
:FULLY-SPECIFIED
:DEGREES
33
root 2.88009 17.5865 17.2628 -5.60889 10.5858 -1.38273
lowerback 6.49139 -2.06208 0.232913
upperback -0.115631 -2.79795 -1.77268
thorax -3.85882 -1.41059 -1.68913
lowerneck 2.30752 -0.487758 -4.21688
upperneck 10.7416 -0.557833 -0.676576
head 3.04696 -0.456863 0.494293
rclavicle 8.44835e-016 7.15625e-015
rhumerus -24.3691 10.2045 -88.7782
rradius 96.0258
rwrist -4.49667
rhand -28.2417 21.501
rfingers 7.12502
rthumb -1.61932 -8.47258
lclavicle 8.44835e-016 7.15625e-015
lhumerus -38.8133 38.3691 64.7826
lradius 19.7439
lwrist -36.769
lhand -10.6502 -7.15605
lfingers 7.12502
lthumb 15.3574 22.2536
rfemur 10.5735 18.0601 22.5998
rtibia 12.7648
rfoot -23.0739 -24.5051
rtoes -14.2875
lfemur 0.413445 -18.1236 -18.5804
ltibia 28.7275
lfoot -23.3814 6.72318
ltoes -13.5033
34
root 2.88048 17.5867 17.2611 -5.61985 10.6738 -1.35826
lowerback 6.47074 -2.00129 0.242977
upperback -0.137451 -2.719 -1.84064
thorax -3.87108 -1.37243 -1.77323
lowerneck 2.45682 -0.566446 -4.1679
upperneck 10.7768 -0.676985 -0.59568
head 3.03401 -0.511642 0.509846
rclavicle 4.96962e-015 -7.15625e-015
rhumerus -22.2285 10.5191 -87.8329
rradius 96.0487
rwrist -4.29911
rhand -28.665 20.9614
rfingers 7.12502
rthumb -2.0282 -9.00868
lclavicle 4.96962e-015 -7.15625e-015
lhumerus -38.9774 38.7648 64.3409
lradius 19.5222
lwrist -37.3641
lhand -10.6849 -7.13394
lfingers 7.12502
lthumb 15.3241 22.2783
rfemur 10.6087 18.0515 22.5801
rtibia 12.7521
rfoot -23.1134 -24.554
rtoes -14.2585
lfemur 0.392269 -18.1431 -18.6057
ltibia 28.7457
lfoot -23.3631 6.66257
ltoes -13.5083
35
root 2.8814 17.5864 17.2594 -5.63132 10.7572 -1.35833
lowerback 6.44023 -1.93474 0.280671
upperback -0.149756 -2.62953 -1.89505
thorax -3.86791 -1.32937 -1.86036
lowerneck 2.58903 -0.64291 -4.19746
upperneck 10.8025 -0.797542 -0.45018
head 3.02239 -0.568118 0.559928
rclavicle 4.40308e-014 1.74931e-014
rhumerus -20.0605 10.8133 -86.7932
rradius 96.0157
rwrist -4.16036
rhand -29.0585 20.3955
rfingers 7.12502
rthumb -2.40818 -9.57069
lclavicle 4.40308e-014 1.74931e-014
lhumerus -39.132 39.2664 63.8704
lradius 19.2795
lwrist -38.048
lhand -10.7359 -7.13665
lfingers 7.12502
lthumb 15.2749 22.2793
rfemur 10.645 18.0196 22.5819
rtibia 12.7261
rfoot -23.1364 -24.5961
rtoes -14.2406
lfemur 0.371338 -18.1767 -18.6134
ltibia 28.7694
lfoot -23.3496 6.63428
ltoes -13.5608
36
root 2.8815 17.5866 17.2573 -5.64858 10.8503 -1.36038
lowerback 6.42972 -1.86901 0.307318
upperback -0.16191 -2.54244 -1.95793
thorax -3.87554 -1.28738 -1.94918
lowerneck 2.69293 -0.731476 -4.09119
upperneck 10.8511 -0.924773 -0.398885
head 3.02194 -0.625972 0.556041
rclavicle -1.10822e-014 1.35174e-014
rhumerus -17.8773 11.0602 -85.7106
rradius 95.9018
rwrist -4.1115
rhand -29.3942 19.8785
rfingers 7.12502
rthumb -2.73238 -10.0837
lclavicle -1.10822e-014 1.35174e-014
lhumerus -39.2823 39.8173 63.3385
lradius 19.0015
lwrist -38.8119
lhand -10.8114 -7.10309
lfingers 7.12502
lthumb 15.2022 22.3184
rfemur 10.6814 17.9839 22.5918
rtibia 12.7123
rfoot -23.1664 -24.6451
rtoes -14.2268
lfemur 0.346145 -18.1863 -18.6028
ltibia 28.7883
lfoot -23.3286 6.55365
ltoes -13.5659
37
root 2.88218 17.587 17.2558 -5.65892 10.9252 -1.3593
lowerback 6.40558 -1.79638 0.338219
upperback -0.166886 -2.44567 -2.02258
thorax -3.86765 -1.2406 -2.04374
lowerneck 2.74518 -0.823616 -4.01364
upperneck 10.927 -1.05584 -0.322912
head 3.04089 -0.686589 0.565
rclavicle -9.39258e-015 5.56597e-015
rhumerus -15.6989 11.2384 -84.6185
rradius 95.709
rwrist -4.09844
rhand -29.6316 19.4224
rfingers 7.12502
rthumb -2.96173 -10.5368
lclavicle -9.39258e-015 5.56597e-015
lhumerus -39.3971 40.2617 62.866
lradius 18.7625
lwrist -39.4538
lhand -10.8522 -7.03766
lfingers 7.12502
lthumb 15.1629 22.3868
rfemur 10.7188 17.9885 22.5971
rtibia 12.6826
rfoot -23.2139 -24.6966
rtoes -14.1617
lfemur 0.322936 -18.2386 -18.6136
ltibia 28.8153
lfoot -23.3218 6.53466
ltoes -13.567
38
root 2.88268 17.5865 17.2543 -5.67451 11.0149 -1.34917
lowerback 6.3974 -1.72721 0.390596
upperback -0.175757 -2.35232 -2.09328
thorax -3.87373 -1.19608 -2.15576
lowerneck 2.81909 -0.909154 -4.008
upperneck 10.9776 -1.18302 -0.204225
head 3.04854 -0.746338 0.600346
rclavicle 1.40143e-014 8.74653e-015
rhumerus -13.5721 11.3536 -83.4778
rradius 95.4589
rwrist -4.1107
rhand -29.7949 19.0068
rfingers 7.12502
rthumb -3.11939 -10.9502
lclavicle 1.40143e-014 8.74653e-015
lhumerus -39.4642 40.5993 62.4656
lradius 18.5192
lwrist -39.9843
lhand -10.9001 -6.93806
lfingers 7.12502
lthumb 15.1167 22.4899
rfemur 10.7671 17.9497 22.5917
rtibia 12.6501
rfoot -23.2359 -24.7382
rtoes -14.1435
lfemur 0.301043 -18.232 -18.6193
ltibia 28.8418
lfoot -23.3052 6.46061
ltoes -13.6211
39
root 2.88279 17.5873 17.2523 -5.68337 11.1087 -1.3508
lowerback 6.39315 -1.6626 0.441542
upperback -0.193017 -2.26496 -2.15412
thorax -3.89011 -1.15453 -2.25601
lowerneck 2.86381 -0.992971 -4.01738
upperneck 11.0703 -1.30636 -0.0818783
head 3.07635 -0.805284 0.639526
rclavicle 1.09332e-014 6.36111e-015
rhumerus -11.4701 11.4109 -82.336
rradius 95.1132
rwrist -4.18148
rhand -29.8533 18.6468
rfingers 7.12502
rthumb -3.17577 -11.3093
lclavicle 1.09332e-014 6.36111e-015
lhumerus -39.5791 40.9966 62.0168
lradius 18.2931
lwrist -40.557
lhand -10.9568 -6.83301
lfingers 7.12502
lthumb 15.0622 22.599
rfemur 10.8074 17.9317 22.6043
rtibia 12.6168
rfoot -23.265 -24.8063
rtoes -14.1254
lfemur 0.266991 -18.2728 -18.6156
ltibia 28.8685
lfoot -23.2916 6.40981
ltoes -13.6236
40
root 2.88222 17.5874 17.2513 -5.6988 11.1972 -1.3396
lowerback 6.37917 -1.59546 0.478868
upperback -0.194897 -2.17496 -2.21718
thorax -3.88417 -1.1112 -2.35167
lowerneck 2.90584 -1.07457 -4.0348
upperneck 11.1476 -1.42717 0.0428091
head 3.09969 -0.862965 0.680948
rclavicle 6.11263e-015 1.11319e-014
rhumerus -9.30318 11.4024 -81.1901
rradius 94.6214
rwrist -4.24243
rhand -29.8372 18.2724
rfingers 7.12502
rthumb -3.16026 -11.6839
lclavicle 6.11263e-015 1.11319e-014
lhumerus -39.6651 41.3442 61.6217
lradius 18.098
lwrist -41.035
lhand -10.9745 -6.70497
lfingers 7.12502
lthumb 15.045 22.7284
rfemur 10.8595 17.9778 22.6241
rtibia 12.5941
rfoot -23.3462 -24.9065
rtoes -14.0465
lfemur 0.243531 -18.2774 -18.6176
ltibia 28.8919
lfoot -23.2764 6.32902
ltoes -13.6277
41
root 2.88223 17.5874 17.25 -5.70519 11.2687 -1.32744
lowerback 6.36352 -1.51736 0.521773
upperback -0.203293 -2.07018 -2.28378
thorax -3.88335 -1.06075 -2.45558
lowerneck 2.92693 -1.16549 -4.03524
upperneck 11.2527 -1.55972 0.171133
head 3.13683 -0.926007 0.720377
rclavicle 2.71341e-014 -3.97569e-015
rhumerus -7.13588 11.3379 -80.0459
rradius 94.0125
rwrist -4.30607
rhand -29.7862 17.8742
rfingers 7.12502
rthumb -3.11102 -12.0829
lclavicle 2.71341e-014 -3.97569e-015
lhumerus -39.6972 41.5925 61.2934
lradius 17.8938
lwrist -41.4038
lhand -11.0286 -6.59986
lfingers 7.12502
lthumb 14.9929 22.8374
rfemur 10.8934 17.9375 22.61
rtibia 12.5595
rfoot -23.3525 -24.9323
rtoes -14.091
lfemur 0.21619 -18.2954 -18.6315
ltibia 28.9181
lfoot -23.2628 6.29679
ltoes -13.7323
42
root 2.88122 17.5879 17.249 -5.71604 11.349 -1.32746
lowerback 6.35527 -1.4415 0.565101
upperback -0.212491 -1.9682 -2.34471
thorax -3.88706 -1.01167 -2.55342
lowerneck 2.96271 -1.254 -4.03503
upperneck 11.3292 -1.68996 0.296689
head 3.16157 -0.987509 0.758925
rclavicle 5.06901e-015 1.35174e-014
rhumerus -4.96709 11.1797 -78.9459
rradius 93.2812
rwrist -4.35796
rhand -29.6232 17.4139
rfingers 7.12502
rthumb -2.9536 -12.5454
lclavicle 5.06901e-015 1.35174e-014
lhumerus -39.7226 41.7557 61.0114
lradius 17.7419
lwrist -41.6822
lhand -11.0476 -6.44004
lfingers 7.12502
lthumb 14.9746 22.9986
rfemur 10.9383 17.9647 22.64
rtibia 12.5351
rfoot -23.3931 -25.0166
rtoes -14.0448
lfemur 0.195675 -18.3151 -18.6234
ltibia 28.9395
lfoot -23.256 6.23614
ltoes -13.7346
43
root 2.87998 17.5881 17.2475 -5.73362 11.4461 -1.32926
lowerback 6.35955 -1.3741 0.613557
upperback -0.221057 -1.87709 -2.40327
thorax -3.89743 -0.96811 -2.6504
lowerneck 3.00165 -1.33879 -4.03975
upperneck 11.411 -1.81458 0.412581
head 3.18761 -1.04673 0.795335
rclavicle 3.61291e-014 4.77083e-015
rhumerus -2.787 10.968 -77.8628
rradius 92.4208
rwrist -4.46163
rhand -29.4255 17.0147
rfingers 7.12502
rthumb -2.76261 -12.9471
lclavicle 3.61291e-014 4.77083e-015
lhumerus -39.7427 41.9329 60.7396
lradius 17.5829
lwrist -41.9569
lhand -11.0641 -6.30045
lfingers 7.12502
lthumb 14.9588 23.1393
rfemur 10.9857 17.9785 22.6678
rtibia 12.5121
rfoot -23.462 -25.0987
rtoes -13.9722
lfemur 0.163418 -18.2884 -18.6003
ltibia 28.9632
lfoot -23.2305 6.12954
ltoes -13.789
44
root 2.87853 17.5884 17.2468 -5.74342 11.5115 -1.32979
lowerback 6.34819 -1.2933 0.662815
upperback -0.234904 -1.76817 -2.46535
thorax -3.90332 -0.915785 -2.75359
lowerneck 3.06108 -1.43286 -4.01668
upperneck 11.483 -1.95141 0.513349
head 3.20635 -1.1112 0.821872
rclavicle -2.16675e-014 8.74653e-015
rhumerus -0.62396 10.6695 -76.8804
rradius 91.3867
rwrist -4.46013
rhand -29.2195 16.6369
rfingers 7.12502
rthumb -2.56373 -13.3274
lclavicle -2.16675e-014 8.74653e-015
lhumerus -39.7175 41.9665 60.5529
lradius 17.4556
lwrist -42.0508
lhand -11.0854 -6.1451
lfingers 7.12502
lthumb 14.9382 23.2962
rfemur 11.0287 18.0056 22.697
rtibia 12.4826
rfoot -23.4998 -25.1854
rtoes -13.9507
lfemur 0.140183 -18.3019 -18.5897
ltibia 28.9866
lfoot -23.2241 6.08942
ltoes -13.7991
45
root 2.87684 17.5887 17.2456 -5.75033 11.6018 -1.31849
lowerback 6.33822 -1.2199 0.687615
upperback -0.239236 -1.67049 -2.52051
thorax -3.89937 -0.868312 -2.83474
lowerneck 3.06916 -1.5179 -4.00812
upperneck 11.5871 -2.07377 0.614168
head 3.24572 -1.16933 0.850994
rclavicle -2.03754e-014 2.78299e-014
rhumerus 1.56588 10.3443 -75.9062
rradius 90.1596
rwrist -4.48175
rhand -29.0568 16.404
rfingers 7.12502
rthumb -2.4066 -13.5622
lclavicle -2.03754e-014 2.78299e-014
lhumerus -39.7271 42.0933 60.3328
lradius 17.3524
lwrist -42.1967
lhand -11.0946 -6.00251
lfingers 7.12502
lthumb 14.9293 23.4395
rfemur 11.0686 18.0054 22.7052
rtibia 12.4584
rfoot -23.5607 -25.2473
rtoes -13.8751
lfemur 0.100799 -18.2701 -18.5767
ltibia 29.0105
lfoot -23.2006 5.98533
ltoes -13.8537
46
root 2.8753 17.5889 17.2447 -5.76063 11.6848 -1.31925
lowerback 6.33499 -1.14476 0.737548
upperback -0.253544 -1.56918 -2.58402
thorax -3.91003 -0.819842 -2.93898
lowerneck 3.10383 -1.61135 -3.9706
upperneck 11.6831 -2.20878 0.714309
head 3.27738 -1.23242 0.874748
rclavicle -2.41026e-014 7.95139e-015
rhumerus 3.76557 9.99672 -74.9831
rradius 88.7039
rwrist -4.50652
rhand -28.9468 16.2683
rfingers 7.12502
rthumb -2.30031 -13.699
lclavicle -2.41026e-014 7.95139e-015
lhumerus -39.8159 42.2957 60.0043
lradius 17.2659
lwrist -42.5046
lhand -11.0712 -5.90414
lfingers 7.12502
lthumb 14.9519 23.5362
rfemur 11.1001 17.9981 22.7247
rtibia 12.4387
rfoot -23.5942 -25.3154
rtoes -13.8596
lfemur 0.0755275 -18.2814 -18.5617
ltibia 29.0329
lfoot -23.1923 5.91226
ltoes -13.9088
